M48
INCH
T01C0.0138
T02C0.0191
T03C0.0354
%
T03
X+009205Y+012404
X+008205Y+012404
X+007205Y+012404
X+007130Y+010783
X+007130Y+009783
X+005138Y+008647
X+005138Y+009647
X+005138Y+010647
X+006131Y+010647
X+006131Y+009647
T01
X+018610Y+006021
T02
X+009496Y+005497
X+009491Y+004988
X+009491Y+004448
X+010046Y+004456
X+010690Y+004471
X+011387Y+004471
X+012001Y+004469
X+012648Y+004441
X+013266Y+004602
X+013851Y+004616
X+014394Y+004616
X+014937Y+004616
X+015465Y+004645
X+016036Y+004616
X+016650Y+004631
X+017236Y+004588
X+004785Y+005622
X+005580Y+004518
X+007480Y+005072
X+007480Y+004490
X+006838Y+004521
X+006861Y+005110
X+006838Y+005592
X+007405Y+005594
X+005524Y+005673
X+006134Y+005684
X+006103Y+005133
X+006134Y+004582
X+024410Y+010914
X+023973Y+010921
X+023587Y+010901
X+023169Y+010912
X+022689Y+010895
X+022224Y+010888
X+021897Y+007327
X+022389Y+007330
X+022917Y+007332
X+023384Y+007638
X+023878Y+007612
X+024354Y+007667
X+007803Y+013897
X+008303Y+013897
X+008837Y+013897
X+009303Y+013897
X+009803Y+013897
X+010303Y+013897
X+010803Y+013897
X+011303Y+013897
X+011803Y+013897
X+012303Y+013897
X+012803Y+013897
X+013303Y+013897
X+014303Y+013897
X+013803Y+013897
X+014803Y+013897
X+015303Y+013897
X+015803Y+013897
X+016303Y+013897
X+017303Y+013897
X+016803Y+013897
T01
X+019047Y+006031
X+019474Y+006024
X+018197Y+006027
T02
X+023505Y+007126
X+023902Y+007147
X+018700Y+013090
X+019200Y+013072
X+019717Y+013072
X+019786Y+012607
X+019303Y+012175
X+018803Y+012175
X+018803Y+009675
X+019303Y+009675
X+019803Y+009675
X+019803Y+009175
X+019303Y+009175
X+018803Y+009175
X+018792Y+006333
X+019228Y+006355
X+019643Y+006383
X+018402Y+006350
X+024362Y+007147
X+004886Y+013947
X+005529Y+013916
X+006141Y+013916
X+006080Y+013334
X+019232Y+010142
X+018706Y+010142
X+018769Y+012643
X+019277Y+012625
X+005529Y+013304
X+004825Y+013304
X+008700Y+005486
X+008714Y+004995
X+008714Y+004418
T01
X+017867Y+011721
X+016409Y+010404
X+017651Y+006981
X+018063Y+010908
X+017777Y+007822
X+017511Y+007556
T02
X+017549Y+010064
X+010502Y+006297
X+014903Y+009290
T01
X+012962Y+009412
T02
X+012262Y+008255
T01
X+007827Y+008734
X+010575Y+008650
X+012515Y+010633
T02
X+011888Y+011259
T01
X+008766Y+011400
X+010249Y+009586
X+012412Y+009064
X+012348Y+007725
X+016554Y+008594
X+016895Y+009707
X+016906Y+011120
X+011420Y+009253
T02
X+017583Y+011319
T01
X+009244Y+006459
T02
X+009370Y+009784
X+008024Y+007834
X+009393Y+010737
T01
X+017482Y+008741
T02
X+014327Y+009942
T01
X+016005Y+012048
X+013733Y+012048
X+011417Y+009895
X+012481Y+007369
X+007769Y+009437
X+009527Y+009057
T02
X+014983Y+011358
X+014980Y+010633
X+014970Y+009878
T00
M30
