G04 DipTrace 3.0.0.2*
G04 gd32f350withholtekregSHUNT.GBL*
%MOIN*%
G04 #@! TF.FileFunction,Copper,L2,Bot*
G04 #@! TF.Part,Single*
%AMOUTLINE0*
4,1,10,
0.019685,0.100394,
0.019685,0.033465,
0.043307,0.009843,
0.043307,-0.076772,
0.019685,-0.100394,
-0.019685,-0.100394,
-0.043307,-0.076772,
-0.043307,0.009843,
-0.019685,0.033465,
-0.019685,0.100394,
0.019685,0.100394,
0*%
G04 #@! TA.AperFunction,Conductor*
%ADD10C,0.009843*%
%ADD14C,0.012992*%
%ADD15C,0.011811*%
G04 #@! TA.AperFunction,CopperBalancing*
%ADD18C,0.025*%
%ADD19R,0.043307X0.03937*%
%ADD20R,0.03937X0.043307*%
%ADD21R,0.051181X0.059055*%
G04 #@! TA.AperFunction,ComponentPad*
%ADD22R,0.059055X0.059055*%
%ADD23C,0.059055*%
%ADD25R,0.137795X0.23622*%
%ADD26R,0.137795X0.19685*%
%ADD28R,0.19685X0.137795*%
%ADD31R,0.027559X0.045276*%
%ADD32R,0.185039X0.181102*%
%ADD34R,0.045276X0.027559*%
%ADD35R,0.181102X0.185039*%
%ADD37R,0.070866X0.125984*%
%ADD39R,0.023622X0.043307*%
%ADD42R,0.03937X0.059055*%
G04 #@! TA.AperFunction,ViaPad*
%ADD46C,0.027559*%
%ADD48C,0.04*%
%ADD101OUTLINE0*%
%FSLAX26Y26*%
G04*
G70*
G90*
G75*
G01*
G04 Bottom*
%LPD*%
X1786669Y1172109D2*
D10*
X1795266D1*
X1791531Y1168374D1*
X1875344D1*
X1888471Y1155247D1*
X1846097Y803864D2*
X1808080D1*
X1784276Y827668D1*
Y954465D1*
X1771865Y966875D1*
X1724869D1*
X1720261Y971483D1*
Y1024686D1*
X1713492Y1031455D1*
X1649810D1*
X1640909Y1040356D1*
X1845745Y696047D2*
Y702867D1*
X1760286D1*
X1765055Y698098D1*
X1806257Y1090806D2*
X1826671D1*
X1828165Y1092301D1*
X2025621D1*
X2032076Y1098756D1*
X1993413Y787894D2*
X1982003D1*
X1962154Y768045D1*
X1810633D1*
X1796486Y782192D1*
X1777682D1*
X1751081Y755592D2*
X1790854D1*
Y749724D1*
X2000727D1*
X2024501Y725950D1*
Y729446D1*
X2025845Y730790D1*
X1754920Y1004934D2*
D14*
X1814062Y1064076D1*
X2081954D1*
X2146059Y999971D1*
X2146231D1*
X2206819Y939383D1*
X1754920Y1004934D2*
D10*
Y1006399D1*
X736508Y643423D2*
D14*
X701560D1*
X686362Y658621D1*
X633617D1*
X613694Y638698D1*
X954787Y814761D2*
Y767906D1*
X937070Y750188D1*
X1039307Y673098D2*
X1050207D1*
Y629749D1*
X1122591Y767614D2*
Y756382D1*
X1039307Y673098D1*
X1526797Y1192739D2*
D10*
Y1171728D1*
X1554618Y1143907D1*
Y1095052D1*
X1564312Y1085358D1*
X1528024Y926228D2*
X1534273D1*
Y976283D1*
X1568273Y1010283D1*
Y1081398D1*
X1564312Y1085358D1*
X1528024Y926228D2*
X1493083D1*
X1490299Y929012D1*
X1325769Y918579D2*
X1296155D1*
Y941219D1*
X1325769Y918579D2*
D14*
X1304202Y940146D1*
X1225068D1*
X1207169Y922247D1*
Y879181D1*
X1226249Y860101D1*
Y825550D1*
X1335500Y833841D2*
Y908848D1*
X1325769Y918579D1*
X782717Y873374D2*
D10*
X787723D1*
X843362Y929013D1*
X1057450Y865014D2*
D15*
X1069852D1*
D14*
Y809325D1*
X1080879D1*
X1122591Y767614D1*
X1251451Y1063262D2*
X1188789Y1125925D1*
X773909Y643423D2*
Y533050D1*
X748039Y507180D1*
X546765Y638698D2*
Y685085D1*
X543552Y688298D1*
Y627249D1*
X478455Y562152D1*
X546765Y638698D2*
Y656760D1*
X571415Y681409D1*
X615403D1*
X640080Y706087D1*
Y783546D1*
X681228Y824694D1*
X842979D1*
Y803874D1*
X896665Y750188D1*
X937070D1*
X876572Y1140034D2*
D15*
X868591D1*
D14*
X864967Y1136411D1*
X999640Y1230760D2*
Y1175016D1*
X1014119Y1160537D1*
X1024900Y958591D2*
Y975171D1*
X983936Y1016135D1*
Y1130353D1*
X1014119Y1160537D1*
X552875Y1330381D2*
X561214Y1355736D1*
X536589D1*
X522860Y1369466D1*
X1074444Y1230760D2*
Y1383787D1*
X1080328Y1389672D1*
X1074444Y1230760D2*
Y1090940D1*
X1073175Y1089671D1*
X811311Y643423D2*
Y610648D1*
X921798Y500161D1*
X1631241Y1085358D2*
Y1079714D1*
X1671702D1*
X1686058Y1065358D1*
X1754920Y1071864D2*
X1692563D1*
X1686058Y1065358D1*
X1631241Y1085358D2*
D10*
Y1083980D1*
X1598509Y1051248D1*
Y1000530D1*
X1561573Y963594D1*
Y847974D1*
X1511052Y797453D1*
X1308163D1*
X1249241Y856374D1*
Y898430D1*
X1241235Y906437D1*
X1659412Y849358D2*
Y837349D1*
X1598058Y775995D1*
X1242251D1*
X1236787Y770531D1*
X1234776Y772543D1*
X1659412Y849358D2*
Y859430D1*
X1655445D1*
X1689486Y970693D2*
Y995001D1*
X1686058Y998429D1*
X1682197Y1135169D2*
Y1120390D1*
X1690585Y1112001D1*
X2048524Y488760D2*
D14*
X2042213D1*
X2003356Y527617D1*
Y657566D1*
X1967655Y693266D1*
X1915455D1*
X1912675Y696047D1*
X1913026Y803864D2*
X1935539D1*
X1955677Y824001D1*
X2013038D1*
X2058235Y869198D1*
X1955400Y1155247D2*
X1991982D1*
X2063056Y1226322D1*
X2092774Y730790D2*
Y648343D1*
X2113311Y627806D1*
X2279816D1*
X2295525Y643514D1*
Y667331D1*
X2291839Y671017D1*
X1055661Y767614D2*
Y765765D1*
X1045883Y775543D1*
X1029917Y791509D1*
Y877122D1*
X1048458Y895663D1*
Y910004D1*
X1063773Y925319D1*
X1141962D1*
X1045883Y775543D2*
X1055661Y767614D1*
X686362Y725550D2*
X712336D1*
X736508Y749722D1*
Y719404D1*
X771014Y684898D1*
X829562D1*
X846698Y667761D1*
X886682D1*
X930951Y712030D1*
X1033768D1*
X1055188Y733450D1*
Y767140D1*
X1746211Y1137398D2*
X1792369D1*
X1810711Y1119055D1*
X1986948D1*
X2015222Y1147329D1*
X2031688D1*
X2030117Y1145759D1*
X2072529D1*
X2187802Y1261031D1*
X2219870D1*
X1758272Y1131895D2*
X1751714D1*
X1746211Y1137398D1*
X924353Y645937D2*
X945217D1*
X972378Y673098D1*
X926156Y978398D2*
X939920D1*
X990945Y927373D1*
X989209D1*
X992189Y924392D1*
Y921060D1*
X926156Y978398D2*
X937026D1*
X811311Y749722D2*
X802430D1*
Y783430D1*
X585631Y794849D2*
Y759648D1*
Y726415D1*
X588571Y723475D1*
X585631Y759648D2*
X471613D1*
X461210Y770051D1*
Y771591D1*
X437843Y794958D1*
Y918045D1*
X476457Y956659D1*
X505782D1*
X513787Y964664D1*
X939340Y1073747D2*
Y1128967D1*
X931896Y1136411D1*
X1739178Y856378D2*
D10*
X1723576D1*
Y738051D1*
X1732862Y728765D1*
X1963858D1*
X2051203Y641420D1*
X2048543Y638760D1*
X1748236Y874085D2*
D14*
Y865436D1*
X1739178Y856378D1*
X1430085Y987798D2*
Y1064469D1*
X1431035Y1065419D1*
X1431325Y1135709D2*
Y1065709D1*
X1400572Y918579D2*
Y988501D1*
X1407418Y981655D1*
Y994244D1*
X1432711D1*
X1431035Y988748D2*
X1430085Y987798D1*
X1431325Y1135709D2*
X1432711Y994244D1*
X1003999Y750188D2*
X999845D1*
Y807105D1*
X992189Y814761D1*
X1400572Y918579D2*
X1422864D1*
X1371256Y970186D1*
X1198947D1*
X1190365Y961604D1*
X1134150D1*
X1117740Y945194D1*
X1051407D1*
X1025169Y918957D1*
Y900953D1*
X992189Y867972D1*
Y856909D1*
Y814761D1*
X1400572Y918579D2*
Y835698D1*
X1402429Y833841D1*
X917386Y814761D2*
Y848125D1*
X926171Y856909D1*
X992189D1*
X1132230Y1160537D2*
Y1162923D1*
X1208870Y1239563D1*
X1395940D1*
X1433067Y1202436D1*
Y1137450D1*
X1431325Y1135709D1*
X1746211Y1204327D2*
D10*
X1684425D1*
X1682197Y1202098D1*
X1593726Y1192739D2*
D14*
X1672837D1*
X1682197Y1202098D1*
X1593726Y1192739D2*
D10*
Y1178777D1*
X1590461Y1175512D1*
Y1214874D1*
X1600499Y1204836D1*
X1373262D2*
Y1202690D1*
X1368970Y1206982D1*
X1362533D1*
Y1061070D1*
X1290961Y989499D1*
X1141660D1*
X1739178Y923307D2*
D14*
X1702680D1*
Y913554D1*
X1662146D1*
X1659412Y916287D1*
X1594953Y926228D2*
X1649471D1*
X1659412Y916287D1*
X1702680Y913554D2*
D10*
Y802726D1*
X1657710Y757756D1*
X1280660D1*
X1259819Y736915D1*
X1248131D1*
X776927Y943739D2*
Y929507D1*
X776433Y929013D1*
X2144870Y1106692D2*
D14*
X2106941D1*
X2099005Y1098756D1*
X2131819Y785043D2*
X2063193D1*
X2060343Y787894D1*
X613150Y1064722D2*
Y1054406D1*
X570566Y1011822D1*
X486182D1*
X411878Y937517D1*
Y783033D1*
X482521Y712390D1*
X504589D1*
X506646Y710333D1*
X520927D1*
Y722760D1*
X521642Y723475D1*
X518702Y794849D2*
X483146D1*
X465961Y812034D1*
Y906234D1*
X476690Y916962D1*
X565388D1*
X613150Y964722D1*
X612870Y891442D2*
X540566D1*
X513787Y864664D1*
X952669Y905673D2*
D10*
Y899257D1*
X931978Y878566D1*
X913357D1*
X882108Y847316D1*
X720316D1*
X677995Y889638D1*
X679799Y891442D1*
X1498255Y1135709D2*
D14*
Y1135843D1*
X1497965Y1065419D2*
Y1063273D1*
X1497014Y987798D2*
D3*
D46*
X1786669Y1172109D3*
X1640909Y1040356D3*
X1765055Y698098D3*
X1806257Y1090806D3*
X1777682Y782192D3*
X1751081Y755592D3*
D48*
X1754920Y1006399D3*
D3*
X1050207Y629749D3*
X1490299Y929012D3*
D46*
X1296155Y941219D3*
D48*
X1226249Y825550D3*
D46*
X782717Y873374D3*
X1057450Y865014D3*
X1251451Y1063262D3*
D48*
X1188789Y1125925D3*
D46*
X876572Y1140034D3*
X1024900Y958591D3*
X1241235Y906437D3*
X1234776Y772543D3*
X1655445Y859430D3*
X1689486Y970693D3*
X1690585Y1112001D3*
X1141962Y925319D3*
D48*
X1758272Y1131895D3*
D46*
X924353Y645937D3*
D48*
X937026Y978398D3*
X802430Y783430D3*
X939340Y1073747D3*
D46*
X1748236Y874085D3*
D48*
X1432711Y994244D3*
D46*
X1600499Y1204836D3*
X1373262D3*
X1141660Y989499D3*
X1248131Y736915D3*
X776927Y943739D3*
X952669Y905673D3*
D48*
X1498255Y1135843D3*
X1497965Y1063273D3*
X1497014Y987798D3*
D46*
X1861046Y602117D3*
D48*
X949594Y549705D3*
X949122Y498780D3*
X949115Y444844D3*
X1004563Y445552D3*
X1068996Y447052D3*
X1138715D3*
X1200119Y446867D3*
X1264818Y444081D3*
X1326591Y460202D3*
X1385139Y461631D3*
X1439403D3*
X1493668D3*
X1546504Y464487D3*
X1603625Y461631D3*
X1665029Y463059D3*
X1723577Y458774D3*
X478455Y562152D3*
X557983Y451773D3*
X748039Y507180D3*
Y449020D3*
X683757Y452080D3*
X686056Y511003D3*
X683757Y559218D3*
X740505Y559428D3*
X552350Y567325D3*
X613353Y568402D3*
X610291Y513302D3*
X613353Y458203D3*
X2441005Y1091432D3*
X2397272Y1092125D3*
X2358695Y1090083D3*
X2316905Y1091248D3*
X2268863Y1089489D3*
X2222407Y1088768D3*
X2189669Y732732D3*
X2238913Y733042D3*
X2291669Y733226D3*
X2338386Y763777D3*
X2387799Y761232D3*
X2435374Y766671D3*
X780328Y1389672D3*
X830328D3*
X883696D3*
X930328D3*
X980328D3*
X1030328D3*
X1080328D3*
X1130328D3*
X1180328D3*
X1230328D3*
X1280328D3*
X1330328D3*
X1430328D3*
X1380328D3*
X1480328D3*
X1530328D3*
X1580328D3*
X1630328D3*
X1730328D3*
X1680328D3*
D46*
X1904702Y603134D3*
X1947367Y602398D3*
X1819703Y602678D3*
D48*
X2350491Y712621D3*
X2390215Y714711D3*
X1869961Y1308970D3*
X1919961Y1307241D3*
X1971689D3*
X1978600Y1260697D3*
X1930328Y1217500D3*
X1880328D3*
Y967500D3*
X1930328D3*
X1980328D3*
Y917500D3*
X1930328D3*
X1880328D3*
X1879160Y633273D3*
X1922816Y635471D3*
X1964301Y638276D3*
X1840178Y635016D3*
X2436211Y714711D3*
X488593Y1394663D3*
X552875Y1391601D3*
X614096D3*
X607974Y1333442D3*
X1923168Y1014196D3*
X1870612D3*
X1876873Y1264262D3*
X1927657Y1262534D3*
X552875Y1330381D3*
X482471D3*
X869999Y548573D3*
X871427Y499549D3*
X871420Y441812D3*
X436804Y1401801D2*
D18*
X1987566D1*
X437781Y1376932D2*
X1987517D1*
X438709Y1352063D2*
X1987469D1*
X439685Y1327194D2*
X1987419D1*
X440613Y1302325D2*
X1987370D1*
X1834411Y1277457D2*
X1987322D1*
X1834314Y1252588D2*
X1987273D1*
X1834217Y1227719D2*
X1987224D1*
X1834118Y1202850D2*
X1987175D1*
X1833484Y1028769D2*
X1986785D1*
X1833386Y1003900D2*
X1986736D1*
X1833289Y979031D2*
X1986686D1*
X1833190Y954163D2*
X1986638D1*
X1833093Y929294D2*
X1986589D1*
X1832995Y904425D2*
X1986541D1*
X1832898Y879556D2*
X1986491D1*
X1832801Y854688D2*
X1941130D1*
X976513Y1286780D2*
X1051723D1*
Y1277551D1*
X1821322Y1277332D1*
X1825041Y1276123D1*
X1828205Y1273824D1*
X1830503Y1270660D1*
X1831711Y1266940D1*
X1831818Y1252438D1*
X1831618Y1199753D1*
X1840325Y1201424D1*
X1989627D1*
X1990108Y1426663D1*
X433345Y1426669D1*
X439081Y1277610D1*
X678568Y1277566D1*
X684125Y1282969D1*
X691236Y1288136D1*
X699068Y1292127D1*
X707429Y1294844D1*
X716112Y1296218D1*
X724902D1*
X733584Y1294844D1*
X741945Y1292127D1*
X749777Y1288136D1*
X756888Y1282969D1*
X762370Y1277549D1*
X778568Y1277559D1*
X784125Y1282969D1*
X791236Y1288136D1*
X799068Y1292127D1*
X807429Y1294844D1*
X816112Y1296218D1*
X824902D1*
X833584Y1294844D1*
X841945Y1292127D1*
X849777Y1288136D1*
X856888Y1282969D1*
X862370Y1277549D1*
X864487Y1284352D1*
Y1296391D1*
X976526D1*
Y1286772D1*
X1877381Y850041D2*
X1935437D1*
X1940701Y853394D1*
X1947976Y856079D1*
X1955677Y856990D1*
X1956010Y856976D1*
X1988929Y856990D1*
X1989302Y1031059D1*
X1830929Y1031088D1*
X1830299Y850049D1*
X1894243Y849992D1*
X821094Y566262D2*
X940850D1*
X821094Y541394D2*
X1730255D1*
X821094Y516525D2*
X1730400D1*
X817724Y491656D2*
X1730499D1*
X817530Y466787D2*
X1730644D1*
X817383Y441919D2*
X1730743D1*
X818614Y589610D2*
Y510406D1*
X815343D1*
X814840Y432999D1*
X1733297Y430543D1*
X1732601Y565203D1*
X953404Y565177D1*
X949685Y566385D1*
X946520Y568682D1*
X944220Y571846D1*
X943012Y575566D1*
X942247Y591172D1*
X910122Y591131D1*
X903008Y589752D1*
X818572Y589652D1*
X426993Y1206472D2*
X773409D1*
X979043D2*
X1019844D1*
X426993Y1181604D2*
X881270D1*
X982559D2*
X1019844D1*
X427042Y1156735D2*
X881270D1*
X982559D2*
X1023898D1*
X427042Y1131866D2*
X654512D1*
X771573D2*
X881270D1*
X982559D2*
X1022286D1*
X427091Y1106997D2*
X554610D1*
X771573D2*
X881270D1*
X982559D2*
X1001974D1*
X427091Y1082129D2*
X554610D1*
X771573D2*
X891134D1*
X987589D2*
X1000899D1*
X427139Y1057260D2*
X554610D1*
X771573D2*
X893379D1*
X985294D2*
X1000899D1*
X427139Y1032391D2*
X457638D1*
X771573D2*
X915596D1*
X963077D2*
X1000899D1*
X763322Y1007522D2*
X875509D1*
X976798D2*
X1001436D1*
X789786Y982654D2*
X875509D1*
X985831D2*
X1020186D1*
X827091Y957785D2*
X875509D1*
X827091Y932916D2*
X875509D1*
X827091Y908047D2*
X876583D1*
X827091Y883178D2*
X871066D1*
X636270Y833441D2*
X687276D1*
X636270Y808572D2*
X760811D1*
X844034D2*
X876583D1*
X636270Y783703D2*
X695723D1*
X852091D2*
X876583D1*
X852091Y758835D2*
X953341D1*
X852091Y733966D2*
X903731D1*
X854483Y709097D2*
X878878D1*
X427432Y684228D2*
X462862D1*
X427482Y659360D2*
X563058D1*
X427482Y634491D2*
X563058D1*
X427530Y609622D2*
X563058D1*
X664346D2*
X695723D1*
X427530Y584753D2*
X770186D1*
X427530Y559885D2*
X770089D1*
X427579Y535016D2*
X769991D1*
X427579Y510147D2*
X769894D1*
X427627Y485278D2*
X769795D1*
X427627Y460409D2*
X769698D1*
X427677Y435541D2*
X769600D1*
X955853Y744978D2*
X955689Y766615D1*
X879083D1*
Y815883D1*
X835672Y815903D1*
X840043Y810757D1*
X843856Y804538D1*
X846622Y797865D1*
X849614Y797867D1*
Y711100D1*
X852888Y708224D1*
X860381Y700731D1*
X873017Y700749D1*
X909528Y737114D1*
X915975Y741423D1*
X923251Y744108D1*
X930951Y745018D1*
X931285Y745005D1*
X955804Y745018D1*
X661016Y845283D2*
X569841Y845265D1*
X574986Y841026D1*
X633777D1*
Y769688D1*
X636717Y769652D1*
Y691576D1*
X640185Y697975D1*
Y773696D1*
X698241D1*
X698205Y797867D1*
X758215D1*
X761005Y804538D1*
X764818Y810757D1*
X769197Y815917D1*
X717852Y816000D1*
X710609Y817440D1*
X703903Y820531D1*
X698104Y825104D1*
X697874Y825352D1*
X677945Y845265D1*
X631654Y845314D1*
X709039Y595277D2*
X698205D1*
Y610462D1*
X661886Y610475D1*
X661840Y592521D1*
X565549D1*
Y677336D1*
X473496Y677298D1*
Y680667D1*
X467545Y682997D1*
X461097Y687306D1*
X424909Y723349D1*
X425259Y432954D1*
X772076Y430594D1*
X772736Y594765D1*
X710630Y594891D1*
X708969Y595277D1*
X879083Y888686D2*
X879075Y932220D1*
X878010D1*
Y1024575D1*
X937026Y1024890D1*
X942133Y1024573D1*
X942988Y1027398D1*
X935692D1*
X928487Y1028539D1*
X921549Y1030794D1*
X915047Y1034106D1*
X909146Y1038394D1*
X903987Y1043552D1*
X899699Y1049454D1*
X896387Y1055955D1*
X894133Y1062894D1*
X892991Y1070098D1*
Y1077395D1*
X894133Y1084600D1*
X895908Y1090240D1*
X883751Y1090232D1*
Y1182587D1*
X980042D1*
Y1096210D1*
X983556Y1088114D1*
X985260Y1081020D1*
X985832Y1073747D1*
X985260Y1066474D1*
X983556Y1059379D1*
X980765Y1052639D1*
X976953Y1046420D1*
X972215Y1040871D1*
X966667Y1036134D1*
X960448Y1032322D1*
X953707Y1029530D1*
X946613Y1027827D1*
X942988Y1027398D1*
X942415Y1024575D1*
X974302D1*
Y1006167D1*
X978451Y999505D1*
X981243Y992765D1*
X982946Y985671D1*
X983395Y981547D1*
X995736Y969234D1*
X1026982Y969206D1*
X1026913Y978402D1*
X1008434Y997327D1*
X1005392Y1002760D1*
X1003702Y1008755D1*
X1003375Y1012899D1*
X1003457Y1101591D1*
X1004672Y1107699D1*
X1007280Y1113354D1*
X1011379Y1118471D1*
X1026499Y1133610D1*
X1026348Y1174740D1*
X1022361D1*
Y1231235D1*
X976507Y1230730D1*
X976526Y1184352D1*
X864487D1*
Y1205689D1*
X860118Y1200760D1*
X853434Y1195050D1*
X845938Y1190458D1*
X837818Y1187093D1*
X829270Y1185042D1*
X820507Y1184352D1*
X811743Y1185042D1*
X803196Y1187093D1*
X795075Y1190458D1*
X787579Y1195050D1*
X780895Y1200760D1*
X775185Y1207444D1*
X770593Y1214940D1*
X767228Y1223060D1*
X765764Y1228659D1*
X424479Y1225189D1*
X424676Y996917D1*
X464759Y1036906D1*
X471206Y1041214D1*
X478482Y1043899D1*
X486182Y1044810D1*
X486516Y1044797D1*
X556934Y1044810D1*
X557130Y1071202D1*
Y1120741D1*
X656983D1*
X657018Y1134337D1*
X769058D1*
Y1022298D1*
X747720D1*
X752650Y1017929D1*
X758360Y1011245D1*
X762951Y1003749D1*
X766316Y995629D1*
X768367Y987081D1*
X768831Y983173D1*
X776927Y984010D1*
X783227Y983514D1*
X789371Y982039D1*
X795210Y979621D1*
X802024Y975196D1*
X824579Y975190D1*
Y882836D1*
X729215D1*
X727945Y887619D1*
X728287Y895336D1*
Y924388D1*
X727945Y887619D1*
X733353Y878730D1*
X869114Y878748D1*
X879058Y888692D1*
X1023190Y982129D2*
X1008434Y997327D1*
X1005392Y1002760D1*
X1003702Y1008755D1*
X1003457Y1010820D1*
X1011135Y994165D1*
X1007280Y999056D1*
X1004672Y1004711D1*
X1003457Y1010820D1*
X1003388Y1013231D1*
X1003375Y1083765D1*
X1003457Y1101591D1*
X1004672Y1107699D1*
X1007280Y1113354D1*
X1011135Y1118245D1*
X1763293Y618869D2*
X1967864D1*
X1775744Y594000D2*
X1967864D1*
X1797472Y569131D2*
X1967864D1*
X1797472Y544262D2*
X1967864D1*
X1797472Y519394D2*
X1968937D1*
X1797472Y494525D2*
X1973088D1*
X1797472Y469656D2*
X1972795D1*
X1797472Y444787D2*
X1972503D1*
X1813327Y643421D2*
X1809613D1*
X1801251Y640685D1*
X1786764Y641110D1*
X1758907Y642235D1*
X1759987Y620448D1*
X1772852Y594428D1*
X1773434Y590560D1*
X1772682Y582930D1*
X1788108Y577862D1*
X1791281Y575577D1*
X1793593Y572424D1*
X1794818Y568709D1*
X1794980Y554201D1*
X1794991Y436504D1*
X1974903Y436480D1*
X1975751Y509571D1*
X1972878Y514992D1*
X1970773Y522457D1*
X1970367Y527617D1*
Y633916D1*
X1813067Y643421D1*
X1800236Y640605D1*
X1799255Y640606D1*
X2192764Y1099946D2*
X2457369D1*
X2459282Y1123310D2*
X2190243Y1124748D1*
X2190264Y1080820D1*
X2460281Y1083706D1*
X2459306Y1123315D1*
X2174589Y775614D2*
X2452450D1*
X2174589Y750745D2*
X2452791D1*
X2162430Y725877D2*
X2453085D1*
X2162870Y701008D2*
X2249081D1*
X2334598D2*
X2453378D1*
X2163310Y676139D2*
X2249081D1*
X2264067Y720147D2*
X2332110D1*
Y694219D1*
X2455980Y695643D1*
X2454902Y779946D1*
X2351854Y782940D1*
X2347990Y784360D1*
X2317259Y800484D1*
X2172043Y799482D1*
X2172091Y735913D1*
X2159736D1*
X2161248Y664369D1*
X2251531D1*
X2251567Y720147D1*
X2264067D1*
X2050100Y1410751D2*
X2463020D1*
X2050149Y1385882D2*
X2463118D1*
X2050198Y1361014D2*
X2463167D1*
X2050247Y1336145D2*
X2463215D1*
X2050247Y1311276D2*
X2463313D1*
X2050296Y1286407D2*
X2463362D1*
X2114700Y1261538D2*
X2463460D1*
X2114700Y1236670D2*
X2463508D1*
X2114700Y1211801D2*
X2463557D1*
X2114700Y1186932D2*
X2463655D1*
X2047764Y1266593D2*
X2112186D1*
Y1186050D1*
X2069462D1*
X2063008Y1179621D1*
X2466168Y1179626D1*
X2465467Y1435597D1*
X2047593Y1433736D1*
X2047820Y1266598D1*
X2051430Y1014996D2*
X2464594D1*
X2051675Y990127D2*
X2464496D1*
X2051919Y965259D2*
X2464448D1*
X2052163Y940390D2*
X2464350D1*
X2052358Y915521D2*
X2464252D1*
X2109877Y890652D2*
X2464203D1*
X2110512Y865783D2*
X2464106D1*
X2353480Y840915D2*
X2464008D1*
X2049877Y909470D2*
X2107365D1*
Y865866D1*
X2141505Y862051D1*
X2332912Y861911D1*
X2336631Y860702D1*
X2339795Y858403D1*
X2341598Y856122D1*
X2354073Y835877D1*
X2466541Y834579D1*
X2467127Y1030479D1*
X2116545Y1032479D1*
X2091491Y1039672D1*
X2048714Y1034911D1*
X2049933Y909448D1*
X2038824Y633461D2*
X2060825D1*
X2340192D2*
X2452525D1*
X2038824Y608592D2*
X2083385D1*
X2323932D2*
X2452428D1*
X2038824Y583723D2*
X2452329D1*
X2038824Y558854D2*
X2452232D1*
X2101861Y533986D2*
X2452134D1*
X2109381Y509117D2*
X2452037D1*
X2116900Y484248D2*
X2451940D1*
X2124420Y459379D2*
X2451841D1*
X2131988Y434510D2*
X2451744D1*
X2332110Y624955D2*
Y621887D1*
X2330109D1*
X2318087Y603766D1*
X2315039Y601315D1*
X2311383Y599925D1*
X2308718Y599660D1*
X2297052Y599678D1*
X2290010Y596432D1*
X2282404Y594919D1*
X2113311Y594818D1*
X2105610Y595728D1*
X2098335Y598413D1*
X2091887Y602722D1*
X2067690Y626919D1*
X2063382Y633366D1*
X2060697Y640642D1*
X2059786Y648343D1*
X2059799Y648676D1*
X2059786Y657766D1*
X2036312Y656596D1*
X2036344Y541306D1*
X2043087Y536978D1*
X2091126Y536824D1*
X2094845Y535615D1*
X2098009Y533316D1*
X2100308Y530152D1*
X2104757Y516136D1*
X2133073Y422625D1*
X2454256Y420715D1*
X2455046Y641535D1*
X2342289Y640558D1*
X2332307Y625236D1*
D19*
X1122591Y767614D3*
X1055661D3*
X859227Y978398D3*
X926156D3*
X1039307Y673098D3*
X972378D3*
X1003999Y750188D3*
X937070D3*
X931896Y1136411D3*
X864967D3*
X1402429Y833841D3*
X1335500D3*
D21*
X1400572Y918579D3*
X1325769D3*
D19*
X1498255Y1135709D3*
X1431325D3*
X1497014Y987798D3*
X1430085D3*
X1497965Y1065419D3*
X1431035D3*
D22*
X920507Y1240371D3*
D23*
X820507D3*
X720507D3*
D22*
X713038Y1078318D3*
D23*
Y978318D3*
D22*
X513787Y864664D3*
D23*
Y964664D3*
Y1064664D3*
D22*
X613150Y1064722D3*
D23*
Y964722D3*
D25*
X2399924Y549583D3*
D26*
X2398480Y939961D3*
D25*
X2394883Y1275325D3*
D28*
X522860Y1369466D3*
X527517Y500243D3*
D31*
X2141839Y671037D3*
X2191839Y671017D3*
X2241839D3*
X2291839D3*
D32*
X2216839Y516677D3*
D31*
X2281819Y785024D3*
X2231819Y785043D3*
X2181819D3*
X2131819D3*
D32*
X2206819Y939383D3*
D31*
X2294870Y1106672D3*
X2244870Y1106692D3*
X2194870D3*
X2144870D3*
D32*
X2219870Y1261031D3*
D34*
X2063076Y1376322D3*
X2063056Y1326322D3*
Y1276322D3*
Y1226322D3*
D35*
X1908717Y1301322D3*
D34*
X2058255Y1019198D3*
X2058235Y969198D3*
Y919198D3*
Y869198D3*
D35*
X1903895Y944198D3*
D34*
X2048543Y638760D3*
X2048524Y588760D3*
Y538760D3*
Y488760D3*
D35*
X1894184Y563760D3*
D21*
X1074444Y1230760D3*
X999640D3*
D20*
X1746211Y1137398D3*
Y1204327D3*
X1754920Y1004934D3*
Y1071864D3*
X1739178Y856378D3*
Y923307D3*
X1682197Y1135169D3*
Y1202098D3*
X1686058Y998429D3*
Y1065358D3*
X1659412Y849358D3*
Y916287D3*
D19*
X1593726Y1192739D3*
X1526797D3*
X1631241Y1085358D3*
X1564312D3*
X1594953Y926228D3*
X1528024D3*
X1912675Y696047D3*
X1845745D3*
X1913026Y803864D3*
X1846097D3*
X1955400Y1155247D3*
X1888471D3*
X2092774Y730790D3*
X2025845D3*
X588571Y723475D3*
X521642D3*
X585631Y794849D3*
X518702D3*
X2060343Y787894D3*
X1993413D3*
X2099005Y1098756D3*
X2032076D3*
X612870Y891442D3*
X679799D3*
X546765Y638698D3*
X613694D3*
D20*
X686362Y725550D3*
Y658621D3*
D19*
X843362Y929013D3*
X776433D3*
D37*
X701325Y500161D3*
X921798D3*
D39*
X992189Y814761D3*
X954787D3*
X917386D3*
Y921060D3*
X992189D3*
X811311Y643423D3*
X773909D3*
X736508D3*
Y749722D3*
X811311D3*
D42*
X1014119Y1160537D3*
D101*
X1073175Y1089671D3*
D42*
X1132230Y1160537D3*
M02*
