G04 DipTrace 3.0.0.2*
G04 gd32f350withholtekregSHUNT.GBO*
%MOIN*%
G04 #@! TF.FileFunction,Legend,Bot*
G04 #@! TF.Part,Single*
%ADD10C,0.009843*%
%ADD30C,0.015742*%
%ADD33C,0.015759*%
%ADD38C,0.015401*%
%ADD41C,0.015401*%
%ADD97C,0.00772*%
%FSLAX26Y26*%
G04*
G70*
G90*
G75*
G01*
G04 BotSilk*
%LPD*%
X1441932Y893008D2*
D10*
Y944150D1*
X1531719Y1119961D2*
Y1151457D1*
X1530479Y972050D2*
Y1003546D1*
X1531429Y1049671D2*
Y1081167D1*
X2110536Y654398D2*
Y477228D1*
X2323138Y654398D2*
Y477228D1*
D30*
X2110536Y681943D3*
X2313121Y801662D2*
D10*
Y978833D1*
X2100520Y801662D2*
Y978833D1*
D30*
X2313121Y774118D3*
X2326172Y1123310D2*
D10*
Y1300481D1*
X2113571Y1123310D2*
Y1300481D1*
D30*
X2326172Y1095766D3*
X2046438Y1407624D2*
D10*
X1869267D1*
X2046438Y1195022D2*
X1869267D1*
D33*
X2073982Y1407624D3*
X2041616Y1050501D2*
D10*
X1864446D1*
X2041616Y837899D2*
X1864446D1*
D33*
X2069160Y1050501D3*
X2031905Y670062D2*
D10*
X1854734D1*
X2031905Y457461D2*
X1854734D1*
D33*
X2059449Y670062D3*
X1115803Y1205189D2*
D10*
Y1256331D1*
X748633Y441075D2*
X874491D1*
X748633Y559248D2*
X874491D1*
D38*
X1019103Y798136D3*
X1013840Y852201D2*
D10*
X895732D1*
X1013840Y883692D2*
X895732D1*
Y852201D2*
Y883692D1*
X1013840Y852201D2*
Y883692D1*
D38*
X838225Y626797D3*
X832962Y680863D2*
D10*
X714854D1*
X832962Y712353D2*
X714854D1*
Y680863D2*
Y712353D1*
X832962Y680863D2*
Y712353D1*
X984591Y1121154D2*
Y1022748D1*
X1014132D1*
X1132217D2*
X1161757D1*
Y1121154D1*
D41*
X975494Y1179784D3*
X2242149Y766898D2*
D97*
X2246902Y764576D1*
X2251710Y759768D1*
X2254087Y754959D1*
X2256519Y747774D1*
Y735836D1*
X2254087Y728651D1*
X2251710Y723898D1*
X2246902Y719089D1*
X2242149Y716713D1*
X2232587D1*
X2227779Y719089D1*
X2223025Y723898D1*
X2220649Y728651D1*
X2218217Y735836D1*
Y747774D1*
X2220649Y754959D1*
X2223025Y759768D1*
X2227779Y764576D1*
X2232587Y766898D1*
X2242149D1*
X2234964Y726275D2*
X2220649Y711904D1*
X2193216Y716658D2*
X2169284Y766842D1*
X2202778D1*
X2239975Y1103157D2*
X2244729Y1100836D1*
X2249537Y1096028D1*
X2251914Y1091219D1*
X2254345Y1084034D1*
Y1072096D1*
X2251914Y1064911D1*
X2249537Y1060158D1*
X2244729Y1055349D1*
X2239975Y1052973D1*
X2230414D1*
X2225605Y1055349D1*
X2220852Y1060158D1*
X2218476Y1064911D1*
X2216044Y1072096D1*
Y1084034D1*
X2218476Y1091219D1*
X2220852Y1096028D1*
X2225605Y1100836D1*
X2230414Y1103157D1*
X2239975D1*
X2232790Y1062534D2*
X2218476Y1048164D1*
X2188666Y1103102D2*
X2195796Y1100726D1*
X2198228Y1095972D1*
Y1091164D1*
X2195796Y1086411D1*
X2191043Y1083979D1*
X2181481Y1081602D1*
X2174296Y1079226D1*
X2169543Y1074417D1*
X2167166Y1069664D1*
Y1062479D1*
X2169543Y1057726D1*
X2171920Y1055294D1*
X2179105Y1052917D1*
X2188666D1*
X2195796Y1055294D1*
X2198228Y1057726D1*
X2200604Y1062479D1*
Y1069664D1*
X2198228Y1074417D1*
X2193419Y1079226D1*
X2186290Y1081602D1*
X2176728Y1083979D1*
X2171920Y1086411D1*
X2169543Y1091164D1*
Y1095972D1*
X2171920Y1100726D1*
X2179105Y1103102D1*
X2188666D1*
X2251866Y1424806D2*
X2256619Y1422484D1*
X2261428Y1417676D1*
X2263804Y1412868D1*
X2266236Y1405682D1*
Y1393744D1*
X2263804Y1386559D1*
X2261428Y1381806D1*
X2256619Y1376998D1*
X2251866Y1374621D1*
X2242304D1*
X2237496Y1376998D1*
X2232743Y1381806D1*
X2230366Y1386559D1*
X2227934Y1393744D1*
Y1405682D1*
X2230366Y1412868D1*
X2232743Y1417676D1*
X2237496Y1422484D1*
X2242304Y1424806D1*
X2251866D1*
X2244681Y1384183D2*
X2230366Y1369813D1*
X2181378Y1408059D2*
X2183810Y1400874D1*
X2188563Y1396066D1*
X2195748Y1393689D1*
X2198125D1*
X2205310Y1396066D1*
X2210063Y1400874D1*
X2212495Y1408059D1*
Y1410436D1*
X2210063Y1417621D1*
X2205310Y1422374D1*
X2198125Y1424750D1*
X2195748D1*
X2188563Y1422374D1*
X2183810Y1417621D1*
X2181378Y1408059D1*
Y1396066D1*
X2183810Y1384127D1*
X2188563Y1376942D1*
X2195748Y1374566D1*
X2200501D1*
X2207686Y1376942D1*
X2210063Y1381751D1*
X1994903Y1488718D2*
X1999656Y1486397D1*
X2004465Y1481588D1*
X2006841Y1476780D1*
X2009273Y1469595D1*
Y1457656D1*
X2006841Y1450471D1*
X2004465Y1445718D1*
X1999656Y1440910D1*
X1994903Y1438533D1*
X1985341D1*
X1980533Y1440910D1*
X1975780Y1445718D1*
X1973403Y1450471D1*
X1970971Y1457656D1*
Y1469595D1*
X1973403Y1476780D1*
X1975780Y1481588D1*
X1980533Y1486397D1*
X1985341Y1488718D1*
X1994903D1*
X1987718Y1448095D2*
X1973403Y1433725D1*
X1955532Y1479101D2*
X1950724Y1481533D1*
X1943539Y1488663D1*
Y1438478D1*
X1913729Y1488663D2*
X1920914Y1486286D1*
X1925723Y1479101D1*
X1928099Y1467163D1*
Y1459978D1*
X1925723Y1448039D1*
X1920914Y1440854D1*
X1913729Y1438478D1*
X1908976D1*
X1901791Y1440854D1*
X1897038Y1448039D1*
X1894606Y1459978D1*
Y1467163D1*
X1897038Y1479101D1*
X1901791Y1486286D1*
X1908976Y1488663D1*
X1913729D1*
X1897038Y1479101D2*
X1925723Y1448039D1*
X1980370Y751156D2*
X1985123Y748835D1*
X1989932Y744026D1*
X1992309Y739218D1*
X1994740Y732033D1*
Y720095D1*
X1992309Y712910D1*
X1989932Y708156D1*
X1985123Y703348D1*
X1980370Y700971D1*
X1970809D1*
X1966000Y703348D1*
X1961247Y708156D1*
X1958870Y712910D1*
X1956439Y720095D1*
Y732033D1*
X1958870Y739218D1*
X1961247Y744026D1*
X1966000Y748835D1*
X1970809Y751156D1*
X1980370D1*
X1973185Y710533D2*
X1958870Y696163D1*
X1940999Y741539D2*
X1936191Y743971D1*
X1929006Y751101D1*
Y700916D1*
X1911135Y739163D2*
Y741539D1*
X1908758Y746348D1*
X1906382Y748724D1*
X1901573Y751101D1*
X1892011D1*
X1887258Y748724D1*
X1884882Y746348D1*
X1882450Y741539D1*
Y736786D1*
X1884882Y731978D1*
X1889635Y724848D1*
X1913567Y700916D1*
X1880073D1*
X608820Y792451D2*
X587320D1*
X580135Y794883D1*
X577703Y797260D1*
X575326Y802013D1*
Y806822D1*
X577703Y811575D1*
X580135Y814007D1*
X587320Y816383D1*
X608820D1*
Y766143D1*
X592073Y792451D2*
X575326Y766143D1*
X559887Y806766D2*
X555079Y809198D1*
X547894Y816328D1*
Y766143D1*
X503769Y809198D2*
X506146Y813951D1*
X513331Y816328D1*
X518084D1*
X525269Y813951D1*
X530078Y806766D1*
X532454Y794828D1*
Y782890D1*
X530078Y773328D1*
X525269Y768520D1*
X518084Y766143D1*
X515708D1*
X508578Y768520D1*
X503769Y773328D1*
X501393Y780513D1*
Y782890D1*
X503769Y790075D1*
X508578Y794828D1*
X515708Y797205D1*
X518084D1*
X525269Y794828D1*
X530078Y790075D1*
X532454Y782890D1*
X607096Y863825D2*
X585596D1*
X578411Y866257D1*
X575979Y868634D1*
X573603Y873387D1*
Y878196D1*
X575979Y882949D1*
X578411Y885381D1*
X585596Y887757D1*
X607096D1*
Y837517D1*
X590349Y863825D2*
X573603Y837517D1*
X558163Y878140D2*
X553355Y880572D1*
X546170Y887702D1*
Y837517D1*
X521169D2*
X497237Y887702D1*
X530731D1*
X645909Y707675D2*
X624409D1*
X617224Y710106D1*
X614792Y712483D1*
X612416Y717236D1*
Y722045D1*
X614792Y726798D1*
X617224Y729230D1*
X624409Y731606D1*
X645909D1*
Y681366D1*
X629162Y707675D2*
X612416Y681366D1*
X594544Y719613D2*
Y721989D1*
X592168Y726798D1*
X589791Y729174D1*
X584983Y731551D1*
X575421D1*
X570668Y729174D1*
X568291Y726798D1*
X565860Y721989D1*
Y717236D1*
X568291Y712428D1*
X573045Y705298D1*
X596976Y681366D1*
X563483D1*
X538482D2*
X514550Y731551D1*
X548044D1*
X617386Y757737D2*
Y736237D1*
X614954Y729052D1*
X612577Y726620D1*
X607824Y724244D1*
X603016D1*
X598263Y726620D1*
X595831Y729052D1*
X593454Y736237D1*
Y757737D1*
X643694D1*
X617386Y740990D2*
X643694Y724244D1*
X605448Y706373D2*
X603071D1*
X598263Y703996D1*
X595886Y701619D1*
X593509Y696811D1*
Y687249D1*
X595886Y682496D1*
X598263Y680120D1*
X603071Y677688D1*
X607824D1*
X612633Y680120D1*
X619762Y684873D1*
X643694Y708804D1*
Y675311D1*
X593509Y647934D2*
X595886Y655063D1*
X600639Y657495D1*
X605448D1*
X610201Y655063D1*
X612633Y650310D1*
X615009Y640749D1*
X617386Y633564D1*
X622194Y628810D1*
X626947Y626434D1*
X634132D1*
X638886Y628810D1*
X641318Y631187D1*
X643694Y638372D1*
Y647934D1*
X641318Y655063D1*
X638886Y657495D1*
X634133Y659872D1*
X626947D1*
X622194Y657495D1*
X617386Y652687D1*
X615009Y645557D1*
X612633Y635995D1*
X610201Y631187D1*
X605448Y628810D1*
X600639D1*
X595886Y631187D1*
X593509Y638372D1*
Y647934D1*
X948208Y612445D2*
X926708D1*
X919523Y614877D1*
X917091Y617253D1*
X914715Y622007D1*
Y626815D1*
X917091Y631568D1*
X919523Y634000D1*
X926708Y636377D1*
X948208D1*
Y586137D1*
X931461Y612445D2*
X914715Y586137D1*
X865782Y629192D2*
X870535Y634000D1*
X877720Y636377D1*
X887282D1*
X894467Y634000D1*
X899275Y629192D1*
Y624438D1*
X896844Y619630D1*
X894467Y617253D1*
X889714Y614877D1*
X875344Y610068D1*
X870535Y607692D1*
X868159Y605260D1*
X865782Y600507D1*
Y593322D1*
X870535Y588568D1*
X877720Y586137D1*
X887282D1*
X894467Y588568D1*
X899275Y593322D1*
X819281Y636377D2*
X850343D1*
Y586137D1*
X819281D1*
X850343Y612445D2*
X831220D1*
X770349Y636377D2*
Y586137D1*
X803842Y636377D1*
Y586137D1*
X721416Y629192D2*
X726169Y634000D1*
X733354Y636377D1*
X742916D1*
X750101Y634000D1*
X754909Y629192D1*
Y624438D1*
X752478Y619630D1*
X750101Y617253D1*
X745348Y614877D1*
X730978Y610068D1*
X726169Y607692D1*
X723793Y605260D1*
X721416Y600507D1*
Y593322D1*
X726169Y588568D1*
X733354Y586137D1*
X742916D1*
X750101Y588568D1*
X754909Y593322D1*
X674915Y636377D2*
X705977D1*
Y586137D1*
X674915D1*
X705977Y612445D2*
X686854D1*
X821603Y844598D2*
Y808728D1*
X819226Y801543D1*
X814418Y796790D1*
X807233Y794358D1*
X802479D1*
X795294Y796790D1*
X790486Y801543D1*
X788109Y808728D1*
Y844598D1*
X770238Y832605D2*
Y834982D1*
X767862Y839790D1*
X765485Y842167D1*
X760677Y844543D1*
X751115D1*
X746362Y842167D1*
X743985Y839790D1*
X741553Y834982D1*
Y830228D1*
X743985Y825420D1*
X748738Y818290D1*
X772670Y794358D1*
X739177D1*
M02*
